<?xml version="1.0" encoding="UTF-8"?>
<!-- Created with Inkscape (http://www.inkscape.org/) -->
<svg width="64" height="64" version="1.1" viewBox="0 0 16.933 16.933" xmlns="http://www.w3.org/2000/svg" xmlns:cc="http://creativecommons.org/ns#" xmlns:dc="http://purl.org/dc/elements/1.1/" xmlns:rdf="http://www.w3.org/1999/02/22-rdf-syntax-ns#">
 <g stroke-linecap="round" stroke-linejoin="round" stroke-width="4.2333">
  <path d="m8.4667 0a8.4667 8.4667 0 0 0-8.4667 8.4667 8.4667 8.4667 0 0 0 8.4667 8.4667 8.4667 8.4667 0 0 0 8.4667-8.4667 8.4667 8.4667 0 0 0-8.4667-8.4667zm0 1.5741a1.5875 1.5875 0 0 1 1.5875 1.5875 1.5875 1.5875 0 0 1-1.5875 1.5875 1.5875 1.5875 0 0 1-1.5875-1.5875 1.5875 1.5875 0 0 1 1.5875-1.5875zm0 4.7485c0.87947 0 1.5875 0.70803 1.5875 1.5875v5.8208c0 0.87947-0.70803 1.5875-1.5875 1.5875s-1.5875-0.70803-1.5875-1.5875v-5.8208c0-0.87947 0.70803-1.5875 1.5875-1.5875z" fill="#8eef97" style="paint-order:stroke fill markers"/>
  <circle cx="-12.7" cy="7.4083" r="8.4667" fill="#fff" style="-inkscape-stroke:none;paint-order:stroke fill markers"/>
  <rect x="-14.287" y="5.2645" width="3.175" height="8.9958" rx="1.5875" ry="1.5875" fill="#ff2a2a" style="-inkscape-stroke:none;paint-order:stroke fill markers"/>
  <circle cx="-12.7" cy="2.1031" r="1.5875" fill="#ff2a2a" style="-inkscape-stroke:none;paint-order:stroke fill markers"/>
 </g>
 <metadata>
  <rdf:RDF>
   <cc:Work rdf:about="">
    <dc:creator>
     <cc:Agent>
      <dc:title>Patou (aka xorblo-doitus)</dc:title>
     </cc:Agent>
    </dc:creator>
   </cc:Work>
  </rdf:RDF>
 </metadata>
</svg>
