<?xml version="1.0" encoding="UTF-8" standalone="no"?>
<!-- Created with Inkscape (http://www.inkscape.org/) -->

<svg
   width="64"
   height="64"
   viewBox="0 0 16.933333 16.933333"
   version="1.1"
   id="svg1"
   inkscape:version="1.3.2 (091e20e, 2023-11-25, custom)"
   sodipodi:docname="information_icon.svg"
   xmlns:inkscape="http://www.inkscape.org/namespaces/inkscape"
   xmlns:sodipodi="http://sodipodi.sourceforge.net/DTD/sodipodi-0.dtd"
   xmlns="http://www.w3.org/2000/svg"
   xmlns:svg="http://www.w3.org/2000/svg"
   xmlns:rdf="http://www.w3.org/1999/02/22-rdf-syntax-ns#"
   xmlns:cc="http://creativecommons.org/ns#"
   xmlns:dc="http://purl.org/dc/elements/1.1/">
  <sodipodi:namedview
     id="namedview1"
     pagecolor="#505050"
     bordercolor="#eeeeee"
     borderopacity="1"
     inkscape:showpageshadow="false"
     inkscape:pageopacity="0"
     inkscape:pagecheckerboard="true"
     inkscape:deskcolor="#505050"
     inkscape:document-units="px"
     borderlayer="true"
     labelstyle="default"
     inkscape:clip-to-page="false"
     inkscape:zoom="8"
     inkscape:cx="26"
     inkscape:cy="34.125"
     inkscape:window-width="1920"
     inkscape:window-height="991"
     inkscape:window-x="-9"
     inkscape:window-y="-9"
     inkscape:window-maximized="1"
     inkscape:current-layer="layer1" />
  <defs
     id="defs1" />
  <g
     inkscape:label="Layer 1"
     inkscape:groupmode="layer"
     id="layer1">
    <path
       d="M 8.4666665,0 A 8.4666662,8.4666662 0 0 0 0,8.4666665 8.4666662,8.4666662 0 0 0 8.4666665,16.933333 8.4666662,8.4666662 0 0 0 16.933333,8.4666665 8.4666662,8.4666662 0 0 0 8.4666665,0 Z m 0,1.5740641 a 1.5875,1.5875 0 0 1 1.5874995,1.5875 1.5875,1.5875 0 0 1 -1.5874995,1.5874999 1.5875,1.5875 0 0 1 -1.5875,-1.5874999 1.5875,1.5875 0 0 1 1.5875,-1.5875 z m 0,4.7485473 c 0.8794741,0 1.5874995,0.7080258 1.5874995,1.5874999 v 5.8208337 c 0,0.879474 -0.7080254,1.5875 -1.5874995,1.5875 -0.8794741,0 -1.5875,-0.708026 -1.5875,-1.5875 V 7.9101113 c 0,-0.8794741 0.7080259,-1.5874999 1.5875,-1.5874999 z"
       style="fill:#00ffff;stroke-width:4.23333;stroke-linecap:round;stroke-linejoin:round;paint-order:stroke fill markers"
       id="path3" />
    <rect
       style="fill:#ff2a2a;stroke-width:4.23333;stroke-linecap:round;stroke-linejoin:round;-inkscape-stroke:none;paint-order:stroke fill markers"
       id="rect1-1"
       width="3.175"
       height="8.9958334"
       x="6.8791666"
       y="17.421707"
       rx="1.5875"
       ry="1.5875" />
    <circle
       style="fill:#ffffff;stroke-width:4.23333;stroke-linecap:round;stroke-linejoin:round;-inkscape-stroke:none;paint-order:stroke fill markers"
       id="path1-8"
       cx="-12.7"
       cy="7.4083328"
       r="8.4666662" />
    <rect
       style="fill:#ff2a2a;stroke-width:4.23333;stroke-linecap:round;stroke-linejoin:round;-inkscape-stroke:none;paint-order:stroke fill markers"
       id="rect1-19"
       width="3.175"
       height="8.9958334"
       x="-14.287499"
       y="5.2644711"
       rx="1.5875"
       ry="1.5875" />
    <circle
       style="fill:#ff2a2a;stroke-width:4.23333;stroke-linecap:round;stroke-linejoin:round;-inkscape-stroke:none;paint-order:stroke fill markers"
       id="path2-7"
       cx="-12.7"
       cy="2.1030688"
       r="1.5875" />
    <circle
       style="fill:#ff2a2a;stroke-width:4.23333;stroke-linecap:round;stroke-linejoin:round;-inkscape-stroke:none;paint-order:stroke fill markers"
       id="path2-5"
       cx="8.4666662"
       cy="-2.1166666"
       r="1.5875" />
  </g>
  <metadata
     id="metadata1">
    <rdf:RDF>
      <cc:Work
         rdf:about="">
        <dc:creator>
          <cc:Agent>
            <dc:title>Patou (aka xorblo-doitus)</dc:title>
          </cc:Agent>
        </dc:creator>
      </cc:Work>
    </rdf:RDF>
  </metadata>
</svg>
